# xmcd CD database file
#
# Track frame offsets:
#	150
#	33700
#	64550
#	83330
#	105612
#	141610
#	165387
#	185407
#	208797
#	242435
#	268507
#
# Disc length: 3830 seconds
#
# Revision: 0
# Processed by: cddbd v1.5PL3 Copyright (c) Steve Scherf et al.
# Submitted via: CDex 1.51
#
DISCID=910ef40b
DTITLE=Dusko Goykovich - In My Dreams
DYEAR=2000
DGENRE=Jazz
TTITLE0=In My Dreams
TTITLE1=St. Germain De Pres
TTITLE2=Sequoia Song
TTITLE3=Introduction
TTITLE4=Skylark
TTITLE5=One Morning In May
TTITLE6=All My Love [Piano Trio Version]
TTITLE7=Little Theo
TTITLE8=I Miss You So
TTITLE9=Ballad For Belgrade
TTITLE10=All My Love [Quartet Version]
EXTD=YEAR: 2000
EXTT0=
EXTT1=
EXTT2=
EXTT3=
EXTT4=
EXTT5=
EXTT6=
EXTT7=
EXTT8=
EXTT9=
EXTT10=
PLAYORDER=
